<mxfile host="app.diagrams.net" modified="2023-04-11T10:59:34.721Z" agent="Mozilla/5.0 (Windows NT 10.0; Win64; x64) AppleWebKit/537.36 (KHTML, like Gecko) Chrome/111.0.0.0 Safari/537.36" etag="PH4g3o24DUDwW2XvxciH" version="21.1.5" type="github">
  <diagram name="Page-1" id="c4acf3e9-155e-7222-9cf6-157b1a14988f">
    <mxGraphModel dx="294" dy="179" grid="1" gridSize="10" guides="1" tooltips="1" connect="1" arrows="1" fold="1" page="1" pageScale="1" pageWidth="850" pageHeight="1100" background="none" math="0" shadow="0">
      <root>
        <mxCell id="0" />
        <mxCell id="1" parent="0" />
        <mxCell id="QSP5BxizehYSm3C2jSbc-1" value="User" style="swimlane;fontStyle=1;align=center;verticalAlign=top;childLayout=stackLayout;horizontal=1;startSize=26;horizontalStack=0;resizeParent=1;resizeParentMax=0;resizeLast=0;collapsible=1;marginBottom=0;whiteSpace=wrap;html=1;" vertex="1" parent="1">
          <mxGeometry x="110" y="30" width="420" height="430" as="geometry">
            <mxRectangle x="110" y="30" width="100" height="30" as="alternateBounds" />
          </mxGeometry>
        </mxCell>
        <mxCell id="QSP5BxizehYSm3C2jSbc-2" value="- Username: String&lt;br&gt;- Password: String&lt;br&gt;- Email: String&lt;br&gt;- Slogan: String&lt;br&gt;- Nickname: String&lt;br&gt;- securityQuestion: SecurityQuestion&lt;br&gt;- securityQuestionAnswer : String&lt;br&gt;&lt;br&gt;&lt;br&gt;" style="text;strokeColor=none;fillColor=none;align=left;verticalAlign=top;spacingLeft=4;spacingRight=4;overflow=hidden;rotatable=0;points=[[0,0.5],[1,0.5]];portConstraint=eastwest;whiteSpace=wrap;html=1;" vertex="1" parent="QSP5BxizehYSm3C2jSbc-1">
          <mxGeometry y="26" width="420" height="144" as="geometry" />
        </mxCell>
        <mxCell id="QSP5BxizehYSm3C2jSbc-3" value="" style="line;strokeWidth=1;fillColor=none;align=left;verticalAlign=middle;spacingTop=-1;spacingLeft=3;spacingRight=3;rotatable=0;labelPosition=right;points=[];portConstraint=eastwest;strokeColor=inherit;" vertex="1" parent="QSP5BxizehYSm3C2jSbc-1">
          <mxGeometry y="170" width="420" height="8" as="geometry" />
        </mxCell>
        <mxCell id="QSP5BxizehYSm3C2jSbc-4" value="+ User(String username, String password, String Email, String nickname)&lt;br&gt;+ setSlogan(String slogan): void&lt;br&gt;+ setPassword(String password): void&lt;br&gt;+ getUsername(): String&lt;br&gt;+ getEmail(): String&lt;br&gt;+ getNickname(): String&lt;br&gt;+ getUsername(): String&lt;br&gt;+ setUsername(): String&lt;br&gt;+ setNickname(): String&lt;br&gt;+ setEmail(): String&lt;br&gt;+ setPassword(): String&lt;br&gt;+ passwordIsCorrect(String password): bool&lt;br&gt;+ securityQuestionIsCorrect(String answer): bool&lt;br&gt;" style="text;strokeColor=none;fillColor=none;align=left;verticalAlign=top;spacingLeft=4;spacingRight=4;overflow=hidden;rotatable=0;points=[[0,0.5],[1,0.5]];portConstraint=eastwest;whiteSpace=wrap;html=1;" vertex="1" parent="QSP5BxizehYSm3C2jSbc-1">
          <mxGeometry y="178" width="420" height="252" as="geometry" />
        </mxCell>
      </root>
    </mxGraphModel>
  </diagram>
</mxfile>
